<svg width="18" height="22" viewBox="0 0 18 22" fill="none" xmlns="http://www.w3.org/2000/svg">
<path d="M14.977 11.4455C14.9668 9.71385 15.7514 8.40875 17.3357 7.44648C16.4496 6.17695 15.109 5.47871 13.3418 5.34414C11.6686 5.21211 9.8379 6.31914 9.1676 6.31914C8.4592 6.31914 6.8393 5.38984 5.56465 5.38984C2.93418 5.43047 0.138672 7.48711 0.138672 11.6714C0.138672 12.908 0.364652 14.1852 0.816602 15.5004C1.4209 17.2321 3.59941 21.4748 5.87187 21.4062C7.0602 21.3783 7.9006 20.5632 9.4469 20.5632C10.9475 20.5632 11.7244 21.4062 13.0498 21.4062C15.3426 21.3732 17.3129 17.5164 17.8867 15.7796C14.8119 14.3298 14.977 11.5344 14.977 11.4455ZM12.3084 3.70137C13.5957 2.17285 13.4789 0.78145 13.4408 0.28125C12.3033 0.34727 10.9881 1.05566 10.2391 1.92656C9.4139 2.86094 8.9289 4.01621 9.033 5.31875C10.2619 5.41269 11.3842 4.78047 12.3084 3.70137Z" fill="white"/>
</svg>
