<?xml version="1.0" encoding="UTF-8"?>
<!DOCTYPE svg PUBLIC "-//W3C//DTD SVG 1.1//EN" "http://www.w3.org/Graphics/SVG/1.1/DTD/svg11.dtd">
<svg xmlns="http://www.w3.org/2000/svg" viewBox="0 0 360 200"  version="1.1" width="200px" height="100px" style="shape-rendering:geometricPrecision; text-rendering:geometricPrecision; image-rendering:optimizeQuality; fill-rule:evenodd; clip-rule:evenodd" xmlns:xlink="http://www.w3.org/1999/xlink">
<g><path style="opacity:1" fill="#132472" d="M 10.5,-0.5 C 23.8333,-0.5 37.1667,-0.5 50.5,-0.5C 53.1771,2.16862 56.1771,4.50195 59.5,6.5C 60.5312,7.70034 61.3645,9.03368 62,10.5C 62.8928,9.28882 63.7261,9.28882 64.5,10.5C 66.9493,15.0046 69.116,19.6713 71,24.5C 71.6667,25.8333 72.3333,25.8333 73,24.5C 73.5564,26.8848 73.3897,29.2181 72.5,31.5C 67.5,31.5 62.5,31.5 57.5,31.5C 57.2881,17.9347 50.6215,9.10137 37.5,5C 16.8753,4.29391 8.37532,14.1272 12,34.5C 13.7884,39.9198 17.2884,43.7532 22.5,46C 21.1667,46.6667 21.1667,47.3333 22.5,48C 25.3272,48.7015 27.9938,49.7015 30.5,51C 35.7061,51.2067 40.7061,51.04 45.5,50.5C 42.3686,61.2276 39.0353,71.8943 35.5,82.5C 33.1667,82.5 30.8333,82.5 28.5,82.5C 26.4664,78.4504 23.1331,75.7838 18.5,74.5C 11.8294,68.1988 5.49611,61.5321 -0.5,54.5C -0.5,39.8333 -0.5,25.1667 -0.5,10.5C 1.5,5.16667 5.16667,1.5 10.5,-0.5 Z"/></g>
<g><path style="opacity:1" fill="#122164" d="M 70.5,-0.5 C 103.167,-0.5 135.833,-0.5 168.5,-0.5C 158.697,9.29692 150.03,19.9636 142.5,31.5C 139.635,31.0548 137.135,31.7215 135,33.5C 131.527,45.7253 128.527,58.0586 126,70.5C 123.619,57.6884 120.619,45.0218 117,32.5C 109.253,31.5183 101.42,31.185 93.5,31.5C 90.4756,28.1182 88.4756,24.1182 87.5,19.5C 83.8915,16.9656 81.2248,13.6323 79.5,9.5C 75.5772,6.98083 72.5772,3.6475 70.5,-0.5 Z"/></g>
<g><path style="opacity:1" fill="#11194a" d="M 168.5,-0.5 C 171.167,-0.5 173.833,-0.5 176.5,-0.5C 176.5,0.166667 176.833,0.5 177.5,0.5C 182.207,2.71515 185.373,6.38182 187,11.5C 187.5,51.1653 187.667,90.8319 187.5,130.5C 156.167,130.5 124.833,130.5 93.5,130.5C 62.1667,130.5 30.8333,130.5 -0.5,130.5C -0.5,130.167 -0.5,129.833 -0.5,129.5C 13.1667,129.5 26.8333,129.5 40.5,129.5C 58.5031,129.667 76.5031,129.5 94.5,129C 101.127,117.248 106.794,105.081 111.5,92.5C 112.91,95.5424 114.243,98.7091 115.5,102C 121.859,102.831 128.193,102.664 134.5,101.5C 142.131,79.4413 149.464,57.2746 156.5,35C 156.415,33.8926 156.081,32.8926 155.5,32C 151.179,31.501 146.846,31.3343 142.5,31.5C 150.03,19.9636 158.697,9.29692 168.5,-0.5 Z"/></g>
<g><path style="opacity:1" fill="#4f4d4d" d="M 177.5,-0.5 C 237.833,-0.5 298.167,-0.5 358.5,-0.5C 360.791,0.764998 363.125,2.09833 365.5,3.5C 365.5,45.8333 365.5,88.1667 365.5,130.5C 306.167,130.5 246.833,130.5 187.5,130.5C 187.667,90.8319 187.5,51.1653 187,11.5C 185.373,6.38182 182.207,2.71515 177.5,0.5C 177.5,0.166667 177.5,-0.166667 177.5,-0.5 Z"/></g>
<g><path style="opacity:1" fill="#14267a" d="M 57.5,31.5 C 55.5328,31.2606 53.6995,31.5939 52,32.5C 49.7262,38.4903 47.5595,44.4903 45.5,50.5C 40.7061,51.04 35.7061,51.2067 30.5,51C 27.9938,49.7015 25.3272,48.7015 22.5,48C 21.1667,47.3333 21.1667,46.6667 22.5,46C 17.2884,43.7532 13.7884,39.9198 12,34.5C 8.37532,14.1272 16.8753,4.29391 37.5,5C 50.6215,9.10137 57.2881,17.9347 57.5,31.5 Z"/></g>
<g><path style="opacity:1" fill="#f1f1f1" d="M 211.5,17.5 C 213.451,17.2267 214.951,17.8934 216,19.5C 217.812,25.1002 219.312,30.7669 220.5,36.5C 219.167,36.5 217.833,36.5 216.5,36.5C 216.938,32.0917 214.938,30.4251 210.5,31.5C 210.803,34.5876 209.47,36.2542 206.5,36.5C 207.56,29.9889 209.227,23.6556 211.5,17.5 Z"/></g>
<g><path style="opacity:1" fill="#f0f0f0" d="M 223.5,17.5 C 235.332,16.7907 239.166,22.124 235,33.5C 234.167,34.3333 233.333,35.1667 232.5,36C 229.518,36.498 226.518,36.6646 223.5,36.5C 223.5,30.1667 223.5,23.8333 223.5,17.5 Z"/></g>
<g><path style="opacity:1" fill="#f1f1f1" d="M 258.5,17.5 C 260.451,17.2267 261.951,17.8934 263,19.5C 264.812,25.1002 266.312,30.7669 267.5,36.5C 266.167,36.5 264.833,36.5 263.5,36.5C 263.938,32.0917 261.938,30.4251 257.5,31.5C 257.803,34.5876 256.47,36.2542 253.5,36.5C 254.56,29.9889 256.227,23.6556 258.5,17.5 Z"/></g>
<g><path style="opacity:1" fill="#e8e8e8" d="M 270.5,17.5 C 271.978,17.238 273.311,17.5713 274.5,18.5C 276,21.5 277.5,24.5 279,27.5C 279.498,24.1832 279.665,20.8499 279.5,17.5C 280.833,17.5 282.167,17.5 283.5,17.5C 283.5,23.8333 283.5,30.1667 283.5,36.5C 282.178,36.67 281.011,36.3366 280,35.5C 277.473,31.7789 275.473,27.7789 274,23.5C 273.501,27.8206 273.334,32.1539 273.5,36.5C 272.5,36.5 271.5,36.5 270.5,36.5C 270.5,30.1667 270.5,23.8333 270.5,17.5 Z"/></g>
<g><path style="opacity:1" fill="#f4f4f4" d="M 300.5,17.5 C 303.898,17.1796 307.232,17.513 310.5,18.5C 308.977,20.2825 306.977,20.9492 304.5,20.5C 304.5,22.1667 304.5,23.8333 304.5,25.5C 306.167,25.5 307.833,25.5 309.5,25.5C 309.5,26.5 309.5,27.5 309.5,28.5C 307.833,28.5 306.167,28.5 304.5,28.5C 304.5,30.1667 304.5,31.8333 304.5,33.5C 306.5,33.5 308.5,33.5 310.5,33.5C 310.5,34.5 310.5,35.5 310.5,36.5C 307.167,36.5 303.833,36.5 300.5,36.5C 300.5,30.1667 300.5,23.8333 300.5,17.5 Z"/></g>
<g><path style="opacity:1" fill="#f0f0f0" d="M 313.5,17.5 C 325.332,16.7907 329.166,22.124 325,33.5C 324.167,34.3333 323.333,35.1667 322.5,36C 319.518,36.498 316.518,36.6646 313.5,36.5C 313.5,30.1667 313.5,23.8333 313.5,17.5 Z"/></g>
<g><path style="opacity:1" fill="#eeeeee" d="M 238.5,17.5 C 239.833,17.5 241.167,17.5 242.5,17.5C 243.01,22.2113 243.844,26.878 245,31.5C 245.842,27.1307 246.842,22.7974 248,18.5C 249.011,17.6634 250.178,17.33 251.5,17.5C 250.444,23.6127 248.944,29.6127 247,35.5C 245.644,36.3802 244.144,36.7135 242.5,36.5C 240.915,30.2435 239.582,23.9102 238.5,17.5 Z"/></g>
<g><path style="opacity:1" fill="#ececec" d="M 290.5,17.5 C 293.38,17.0325 295.713,17.8659 297.5,20C 297.167,20.5 296.833,21 296.5,21.5C 292.21,20.1093 290.21,21.776 290.5,26.5C 290.515,28.6341 291.015,30.6341 292,32.5C 293.458,33.7468 294.958,33.7468 296.5,32.5C 297.731,33.6507 297.731,34.8173 296.5,36C 291.88,37.538 288.713,36.038 287,31.5C 285.608,26.0931 286.774,21.4265 290.5,17.5 Z"/></g>
<g><path style="opacity:1" fill="#525151" d="M 227.5,20.5 C 231.305,20.6425 232.971,22.6425 232.5,26.5C 232.979,30.5886 231.312,32.9219 227.5,33.5C 227.5,29.1667 227.5,24.8333 227.5,20.5 Z"/></g>
<g><path style="opacity:1" fill="#525151" d="M 317.5,20.5 C 321.305,20.6425 322.971,22.6425 322.5,26.5C 322.979,30.5886 321.312,32.9219 317.5,33.5C 317.5,29.1667 317.5,24.8333 317.5,20.5 Z"/></g>
<g><path style="opacity:1" fill="#6a6a6a" d="M 212.5,21.5 C 213.768,23.9052 214.435,26.5718 214.5,29.5C 213.5,29.5 212.5,29.5 211.5,29.5C 211.833,26.8333 212.167,24.1667 212.5,21.5 Z"/></g>
<g><path style="opacity:1" fill="#6a6a6a" d="M 259.5,21.5 C 260.768,23.9052 261.435,26.5718 261.5,29.5C 260.5,29.5 259.5,29.5 258.5,29.5C 258.833,26.8333 259.167,24.1667 259.5,21.5 Z"/></g>
<g><path style="opacity:1" fill="#e7e7e7" d="M 333.5,23.5 C 334.5,23.5 335.5,23.5 336.5,23.5C 336.5,25.1667 336.5,26.8333 336.5,28.5C 338.167,28.5 339.833,28.5 341.5,28.5C 341.5,29.5 341.5,30.5 341.5,31.5C 339.833,31.5 338.167,31.5 336.5,31.5C 336.5,32.8333 336.5,34.1667 336.5,35.5C 335.5,35.5 334.5,35.5 333.5,35.5C 333.5,34.1667 333.5,32.8333 333.5,31.5C 331.833,31.5 330.167,31.5 328.5,31.5C 328.5,30.5 328.5,29.5 328.5,28.5C 330.167,28.5 331.833,28.5 333.5,28.5C 333.5,26.8333 333.5,25.1667 333.5,23.5 Z"/></g>
<g><path style="opacity:1" fill="#fafafc" d="M 57.5,31.5 C 62.5,31.5 67.5,31.5 72.5,31.5C 75.0495,31.5608 76.5495,32.8941 77,35.5C 84.9606,57.5443 91.7939,79.8776 97.5,102.5C 89.5,102.5 81.5,102.5 73.5,102.5C 72.6261,99.2107 71.9595,95.8774 71.5,92.5C 65.1667,92.5 58.8333,92.5 52.5,92.5C 52.7428,95.8826 52.0761,99.0492 50.5,102C 43.8417,102.5 37.175,102.666 30.5,102.5C 30.9372,95.5226 32.6038,88.856 35.5,82.5C 39.0353,71.8943 42.3686,61.2276 45.5,50.5C 47.5595,44.4903 49.7262,38.4903 52,32.5C 53.6995,31.5939 55.5328,31.2606 57.5,31.5 Z"/></g>
<g><path style="opacity:1" fill="#fafbfc" d="M 93.5,31.5 C 101.42,31.185 109.253,31.5183 117,32.5C 120.619,45.0218 123.619,57.6884 126,70.5C 128.527,58.0586 131.527,45.7253 135,33.5C 137.135,31.7215 139.635,31.0548 142.5,31.5C 146.846,31.3343 151.179,31.501 155.5,32C 156.081,32.8926 156.415,33.8926 156.5,35C 149.464,57.2746 142.131,79.4413 134.5,101.5C 128.193,102.664 121.859,102.831 115.5,102C 114.243,98.7091 112.91,95.5424 111.5,92.5C 105.444,73.8316 99.2773,55.1649 93,36.5C 92.3603,34.735 92.5269,33.0683 93.5,31.5 Z"/></g>
<g><path style="opacity:1" fill="#ee9839" d="M 236.5,46.5 C 238.934,49.8485 241.267,53.3485 243.5,57C 247.287,57.1596 250.954,57.8263 254.5,59C 252,61.5 249.5,64 247,66.5C 247.499,70.5138 247.333,74.5138 246.5,78.5C 243.661,76.5797 240.661,74.9131 237.5,73.5C 234.167,75.1667 230.833,76.8333 227.5,78.5C 227.167,78.1667 226.833,77.8333 226.5,77.5C 227.52,73.8603 228.02,70.1936 228,66.5C 225.5,64 223,61.5 220.5,59C 224.03,57.8416 227.697,57.0083 231.5,56.5C 233.705,53.4234 235.372,50.0901 236.5,46.5 Z"/></g>
<g><path style="opacity:1" fill="#ee9839" d="M 272.5,46.5 C 274.934,49.8485 277.267,53.3485 279.5,57C 283.287,57.1596 286.954,57.8263 290.5,59C 288,61.5 285.5,64 283,66.5C 283.499,70.5138 283.333,74.5138 282.5,78.5C 279.661,76.5797 276.661,74.9131 273.5,73.5C 270.167,75.1667 266.833,76.8333 263.5,78.5C 263.167,78.1667 262.833,77.8333 262.5,77.5C 263.52,73.8603 264.02,70.1936 264,66.5C 261.5,64 259,61.5 256.5,59C 260.03,57.8416 263.697,57.0083 267.5,56.5C 269.705,53.4234 271.372,50.0901 272.5,46.5 Z"/></g>
<g><path style="opacity:1" fill="#ee9839" d="M 308.5,46.5 C 310.934,49.8485 313.267,53.3485 315.5,57C 319.287,57.1596 322.954,57.8263 326.5,59C 324,61.5 321.5,64 319,66.5C 319.499,70.5138 319.333,74.5138 318.5,78.5C 315.661,76.5797 312.661,74.9131 309.5,73.5C 306.167,75.1667 302.833,76.8333 299.5,78.5C 299.167,78.1667 298.833,77.8333 298.5,77.5C 299.52,73.8603 300.02,70.1936 300,66.5C 297.5,64 295,61.5 292.5,59C 296.03,57.8416 299.697,57.0083 303.5,56.5C 305.705,53.4234 307.372,50.0901 308.5,46.5 Z"/></g>
<g><path style="opacity:1" fill="#14236a" d="M 50.5,-0.5 C 57.1667,-0.5 63.8333,-0.5 70.5,-0.5C 72.5772,3.6475 75.5772,6.98083 79.5,9.5C 81.2248,13.6323 83.8915,16.9656 87.5,19.5C 88.4756,24.1182 90.4756,28.1182 93.5,31.5C 92.5269,33.0683 92.3603,34.735 93,36.5C 99.2773,55.1649 105.444,73.8316 111.5,92.5C 106.794,105.081 101.127,117.248 94.5,129C 76.5031,129.5 58.5031,129.667 40.5,129.5C 42.002,127.825 43.3353,125.992 44.5,124C 42.9128,120.973 41.2462,118.14 39.5,115.5C 38.325,115.719 37.325,115.386 36.5,114.5C 32.8489,110.348 29.0156,106.348 25,102.5C 24.3828,101.551 24.5494,100.718 25.5,100C 23.2199,99.7674 21.2199,98.934 19.5,97.5C 12.7397,89.4852 6.07303,81.4852 -0.5,73.5C -0.5,67.1667 -0.5,60.8333 -0.5,54.5C 5.49611,61.5321 11.8294,68.1988 18.5,74.5C 23.1331,75.7838 26.4664,78.4504 28.5,82.5C 30.8333,82.5 33.1667,82.5 35.5,82.5C 32.6038,88.856 30.9372,95.5226 30.5,102.5C 37.175,102.666 43.8417,102.5 50.5,102C 52.0761,99.0492 52.7428,95.8826 52.5,92.5C 58.8333,92.5 65.1667,92.5 71.5,92.5C 71.9595,95.8774 72.6261,99.2107 73.5,102.5C 81.5,102.5 89.5,102.5 97.5,102.5C 91.7939,79.8776 84.9606,57.5443 77,35.5C 76.5495,32.8941 75.0495,31.5608 72.5,31.5C 73.3897,29.2181 73.5564,26.8848 73,24.5C 72.3333,25.8333 71.6667,25.8333 71,24.5C 69.116,19.6713 66.9493,15.0046 64.5,10.5C 63.7261,9.28882 62.8928,9.28882 62,10.5C 61.3645,9.03368 60.5312,7.70034 59.5,6.5C 56.1771,4.50195 53.1771,2.16862 50.5,-0.5 Z"/></g>
<g><path style="opacity:1" fill="#212c74" d="M 67.5,76.5 C 64.3157,78.4136 60.649,79.0803 56.5,78.5C 58.7021,69.8907 60.7021,61.224 62.5,52.5C 63.9139,60.5703 65.5806,68.5703 67.5,76.5 Z"/></g>
<g><path style="opacity:1" fill="#101f5f" d="M -0.5,73.5 C 6.07303,81.4852 12.7397,89.4852 19.5,97.5C 21.2199,98.934 23.2199,99.7674 25.5,100C 24.5494,100.718 24.3828,101.551 25,102.5C 29.0156,106.348 32.8489,110.348 36.5,114.5C 37.325,115.386 38.325,115.719 39.5,115.5C 41.2462,118.14 42.9128,120.973 44.5,124C 43.3353,125.992 42.002,127.825 40.5,129.5C 26.8333,129.5 13.1667,129.5 -0.5,129.5C -0.5,110.833 -0.5,92.1667 -0.5,73.5 Z"/></g>
<g><path style="opacity:1" fill="#8e96b9" d="M 67.5,76.5 C 68.404,77.209 68.7373,78.209 68.5,79.5C 64.2984,79.8168 60.2984,79.4834 56.5,78.5C 60.649,79.0803 64.3157,78.4136 67.5,76.5 Z"/></g>
<g><path style="opacity:1" fill="#e9e8e8" d="M 263.5,86.5 C 264.5,86.5 265.5,86.5 266.5,86.5C 265.963,91.7388 266.63,96.7388 268.5,101.5C 266.994,102.747 265.494,102.747 264,101.5C 263.501,96.5111 263.334,91.5111 263.5,86.5 Z"/></g>
<g><path style="opacity:1" fill="#ececec" d="M 254.5,91.5 C 256.591,91.3184 258.591,91.6518 260.5,92.5C 261.833,95.8333 261.833,99.1667 260.5,102.5C 258.398,102.521 256.232,102.187 254,101.5C 253.186,97.7934 254.686,95.4601 258.5,94.5C 256.668,93.9432 255.335,92.9432 254.5,91.5 Z"/></g>
<g><path style="opacity:1" fill="#ececec" d="M 284.5,91.5 C 286.591,91.3184 288.591,91.6518 290.5,92.5C 291.833,95.8333 291.833,99.1667 290.5,102.5C 288.398,102.521 286.232,102.187 284,101.5C 283.186,97.7934 284.686,95.4601 288.5,94.5C 286.668,93.9432 285.335,92.9432 284.5,91.5 Z"/></g>
<g><path style="opacity:1" fill="#e7e7e7" d="M 293.5,91.5 C 295.205,92.5353 296.872,92.5353 298.5,91.5C 299.386,92.325 299.719,93.325 299.5,94.5C 298.5,94.5 297.5,94.5 296.5,94.5C 296.5,97.1667 296.5,99.8333 296.5,102.5C 295.5,102.5 294.5,102.5 293.5,102.5C 293.5,98.8333 293.5,95.1667 293.5,91.5 Z"/></g>
<g><path style="opacity:1" fill="#ededed" d="M 303.5,91.5 C 308.294,90.6269 310.627,92.6269 310.5,97.5C 308.396,97.2011 306.396,97.5344 304.5,98.5C 305.62,100.596 307.12,100.93 309,99.5C 309.617,100.449 309.451,101.282 308.5,102C 304.167,103.489 301.833,101.989 301.5,97.5C 301.611,95.2857 302.278,93.2857 303.5,91.5 Z"/></g>
<g><path style="opacity:1" fill="#f2f2f2" d="M 239.5,87.5 C 240.822,87.33 241.989,87.6634 243,88.5C 243.511,90.8782 244.178,93.2115 245,95.5C 245.511,93.1218 246.178,90.7885 247,88.5C 248.011,87.6634 249.178,87.33 250.5,87.5C 250.827,92.544 250.494,97.544 249.5,102.5C 248.675,98.8776 248.175,95.211 248,91.5C 247.178,94.1168 246.678,96.7835 246.5,99.5C 245.5,99.5 244.5,99.5 243.5,99.5C 243.162,97.146 242.662,94.8127 242,92.5C 241.824,95.8818 241.324,99.2152 240.5,102.5C 239.506,97.544 239.173,92.544 239.5,87.5 Z"/></g>
<g><path style="opacity:1" fill="#5f5e5e" d="M 304.5,93.5 C 305.675,93.281 306.675,93.6143 307.5,94.5C 305.948,95.7979 304.948,95.4646 304.5,93.5 Z"/></g>
<g><path style="opacity:1" fill="#5a5959" d="M 256.5,97.5 C 258.465,97.9483 258.798,98.9483 257.5,100.5C 256.614,99.675 256.281,98.675 256.5,97.5 Z"/></g>
<g><path style="opacity:1" fill="#5a5959" d="M 286.5,97.5 C 288.465,97.9483 288.798,98.9483 287.5,100.5C 286.614,99.675 286.281,98.675 286.5,97.5 Z"/></g>
<g><path style="opacity:1" fill="#e3e2e2" d="M 269.5,91.5 C 270.496,91.4142 271.329,91.7476 272,92.5C 272.667,99.1667 273.333,99.1667 274,92.5C 275.011,91.6634 276.178,91.33 277.5,91.5C 278.167,96.8333 278.833,96.8333 279.5,91.5C 280.5,91.5 281.5,91.5 282.5,91.5C 281.301,95.0986 280.301,98.7653 279.5,102.5C 278.5,102.5 277.5,102.5 276.5,102.5C 275.833,95.8333 275.167,95.8333 274.5,102.5C 273.5,102.5 272.5,102.5 271.5,102.5C 270.674,98.8641 270.008,95.1974 269.5,91.5 Z"/></g>
<g><path style="opacity:1" fill="#efefef" d="M 228.5,105.5 C 235.107,103.749 237.607,106.082 236,112.5C 234.89,114.037 233.39,114.703 231.5,114.5C 231.5,116.5 231.5,118.5 231.5,120.5C 230.5,120.5 229.5,120.5 228.5,120.5C 228.5,115.5 228.5,110.5 228.5,105.5 Z"/></g>
<g><path style="opacity:1" fill="#f2f2f2" d="M 294.5,104.5 C 295.5,104.5 296.5,104.5 297.5,104.5C 297.5,105.5 297.5,106.5 297.5,107.5C 296.5,107.5 295.5,107.5 294.5,107.5C 294.5,106.5 294.5,105.5 294.5,104.5 Z"/></g>
<g><path style="opacity:1" fill="#ededed" d="M 258.5,106.5 C 259.5,106.5 260.5,106.5 261.5,106.5C 261.48,108.143 262.147,109.476 263.5,110.5C 261.827,112.523 261.16,114.856 261.5,117.5C 262.5,117.5 263.5,117.5 264.5,117.5C 264.5,118.5 264.5,119.5 264.5,120.5C 262.533,120.739 260.699,120.406 259,119.5C 258.936,116.237 258.102,113.237 256.5,110.5C 257.853,109.476 258.52,108.143 258.5,106.5 Z"/></g>
<g><path style="opacity:1" fill="#ebebeb" d="M 286.5,106.5 C 287.5,106.5 288.5,106.5 289.5,106.5C 289.5,107.5 289.5,108.5 289.5,109.5C 292.167,109.5 294.833,109.5 297.5,109.5C 297.5,113.167 297.5,116.833 297.5,120.5C 296.5,120.5 295.5,120.5 294.5,120.5C 294.5,117.5 294.5,114.5 294.5,111.5C 292.833,111.5 291.167,111.5 289.5,111.5C 289.5,113.5 289.5,115.5 289.5,117.5C 290.5,117.5 291.5,117.5 292.5,117.5C 292.5,118.5 292.5,119.5 292.5,120.5C 290.533,120.739 288.699,120.406 287,119.5C 286.503,116.854 286.336,114.187 286.5,111.5C 284.239,112.409 282.072,112.742 280,112.5C 279.333,114.167 279.333,115.833 280,117.5C 281,118.833 282,118.833 283,117.5C 283.483,118.448 283.649,119.448 283.5,120.5C 277.501,120.998 275.334,118.331 277,112.5C 278.581,109.447 280.914,108.78 284,110.5C 285.706,109.692 286.539,108.359 286.5,106.5 Z"/></g>
<g><path style="opacity:1" fill="#898888" d="M 230.5,107.5 C 231.5,107.5 232.5,107.5 233.5,107.5C 233.5,109.167 233.5,110.833 233.5,112.5C 232.5,112.5 231.5,112.5 230.5,112.5C 230.5,110.833 230.5,109.167 230.5,107.5 Z"/></g>
<g><path style="opacity:1" fill="#e7e7e7" d="M 238.5,109.5 C 240.205,110.535 241.872,110.535 243.5,109.5C 244.386,110.325 244.719,111.325 244.5,112.5C 243.5,112.5 242.5,112.5 241.5,112.5C 241.5,115.167 241.5,117.833 241.5,120.5C 240.5,120.5 239.5,120.5 238.5,120.5C 238.5,116.833 238.5,113.167 238.5,109.5 Z"/></g>
<g><path style="opacity:1" fill="#e9e9e9" d="M 248.5,109.5 C 254.499,109.002 256.666,111.669 255,117.5C 253.695,120.306 251.528,121.14 248.5,120C 245.868,116.432 245.868,112.932 248.5,109.5 Z"/></g>
<g><path style="opacity:1" fill="#ededed" d="M 267.5,109.5 C 272.294,108.627 274.627,110.627 274.5,115.5C 272.396,115.201 270.396,115.534 268.5,116.5C 269.62,118.596 271.12,118.93 273,117.5C 273.617,118.449 273.451,119.282 272.5,120C 268.167,121.489 265.833,119.989 265.5,115.5C 265.611,113.286 266.278,111.286 267.5,109.5 Z"/></g>
<g><path style="opacity:1" fill="#e9e9e9" d="M 302.5,109.5 C 308.499,109.002 310.666,111.669 309,117.5C 307.695,120.306 305.528,121.14 302.5,120C 299.868,116.432 299.868,112.932 302.5,109.5 Z"/></g>
<g><path style="opacity:1" fill="#e8e8e8" d="M 311.5,109.5 C 314.277,109.786 317.111,110.12 320,110.5C 320.498,113.817 320.665,117.15 320.5,120.5C 319.5,120.5 318.5,120.5 317.5,120.5C 317.817,117.428 317.484,114.428 316.5,111.5C 315.914,111.709 315.414,112.043 315,112.5C 314.503,115.146 314.336,117.813 314.5,120.5C 313.5,120.5 312.5,120.5 311.5,120.5C 311.5,116.833 311.5,113.167 311.5,109.5 Z"/></g>
<g><path style="opacity:1" fill="#525151" d="M 250.5,111.5 C 252.94,113.573 253.106,115.906 251,118.5C 249.193,116.294 249.026,113.961 250.5,111.5 Z"/></g>
<g><path style="opacity:1" fill="#5f5e5e" d="M 268.5,111.5 C 269.675,111.281 270.675,111.614 271.5,112.5C 269.948,113.798 268.948,113.465 268.5,111.5 Z"/></g>
<g><path style="opacity:1" fill="#525151" d="M 304.5,111.5 C 306.94,113.573 307.106,115.906 305,118.5C 303.193,116.294 303.026,113.961 304.5,111.5 Z"/></g>
<g><path style="opacity:0.997" fill="#f4a02c" d="M -0.5,130.5 C 30.8333,130.5 62.1667,130.5 93.5,130.5C 90.2607,137.312 86.2607,143.645 81.5,149.5C 83.2914,150.17 84.9581,150.837 86.5,151.5C 83.6122,150.99 81.2789,151.656 79.5,153.5C 78.5,154.167 77.5,154.833 76.5,155.5C 75.9717,154.279 75.305,153.113 74.5,152C 71.1832,151.502 67.8499,151.335 64.5,151.5C 64.5,158.167 64.5,164.833 64.5,171.5C 57.5393,176.46 50.8726,181.794 44.5,187.5C 33.1667,187.5 21.8333,187.5 10.5,187.5C 5.4746,185.141 1.80794,181.475 -0.5,176.5C -0.5,161.167 -0.5,145.833 -0.5,130.5 Z"/></g>
<g><path style="opacity:1" fill="#f29527" d="M 93.5,130.5 C 124.833,130.5 156.167,130.5 187.5,130.5C 187.667,145.504 187.5,160.504 187,175.5C 185.202,180.482 182.035,184.149 177.5,186.5C 176.833,186.5 176.5,186.833 176.5,187.5C 132.5,187.5 88.5,187.5 44.5,187.5C 50.8726,181.794 57.5393,176.46 64.5,171.5C 65.8333,171.5 67.1667,171.5 68.5,171.5C 68.5,169.833 68.5,168.167 68.5,166.5C 75.6396,166.337 78.3063,162.67 76.5,155.5C 77.5,154.833 78.5,154.167 79.5,153.5C 81.3691,154.165 83.3691,154.831 85.5,155.5C 83.0918,156.453 80.9251,157.787 79,159.5C 78.1041,162.025 78.6041,164.192 80.5,166C 83.1483,166.099 85.6483,166.265 88,166.5C 89.2798,166.387 90.1131,165.72 90.5,164.5C 89.7315,160.555 89.2315,156.555 89,152.5C 88.3292,151.748 87.4959,151.414 86.5,151.5C 84.9581,150.837 83.2914,150.17 81.5,149.5C 86.2607,143.645 90.2607,137.312 93.5,130.5 Z"/></g>
<g><path style="opacity:0.999" fill="#717171" d="M 187.5,130.5 C 246.833,130.5 306.167,130.5 365.5,130.5C 365.5,148.167 365.5,165.833 365.5,183.5C 363.125,184.902 360.791,186.235 358.5,187.5C 298.167,187.5 237.833,187.5 177.5,187.5C 177.5,187.167 177.5,186.833 177.5,186.5C 182.035,184.149 185.202,180.482 187,175.5C 187.5,160.504 187.667,145.504 187.5,130.5 Z"/></g>
<g><path style="opacity:1" fill="#fff3e7" d="M 129.5,144.5 C 132.084,145.048 133.084,146.715 132.5,149.5C 127.516,149.856 126.516,148.189 129.5,144.5 Z"/></g>
<g><path style="opacity:1" fill="#f4f4f4" d="M 204.5,146.5 C 206.288,146.215 207.955,146.548 209.5,147.5C 210.967,151.069 212.134,154.736 213,158.5C 214.477,154.57 215.644,150.57 216.5,146.5C 218.467,146.261 220.301,146.594 222,147.5C 222.5,154.826 222.666,162.159 222.5,169.5C 221.167,169.5 219.833,169.5 218.5,169.5C 218.666,163.824 218.499,158.157 218,152.5C 214.667,168.5 211.333,168.5 208,152.5C 207.501,158.157 207.334,163.824 207.5,169.5C 206.167,169.5 204.833,169.5 203.5,169.5C 203.778,161.83 204.111,154.164 204.5,146.5 Z"/></g>
<g><path style="opacity:1" fill="#f3f3f3" d="M 231.5,146.5 C 233.467,146.261 235.301,146.594 237,147.5C 239.481,154.761 241.648,162.095 243.5,169.5C 241.833,169.5 240.167,169.5 238.5,169.5C 238.167,167.5 237.833,165.5 237.5,163.5C 232.505,162.582 230.172,164.582 230.5,169.5C 228.833,169.5 227.167,169.5 225.5,169.5C 227.343,161.797 229.343,154.13 231.5,146.5 Z"/></g>
<g><path style="opacity:1" fill="#fbfbfb" d="M 247.5,146.5 C 250.518,146.335 253.518,146.502 256.5,147C 260.292,149.053 261.458,152.219 260,156.5C 258.978,157.354 258.145,158.354 257.5,159.5C 259.293,162.251 260.959,165.084 262.5,168C 261.234,168.309 260.067,168.809 259,169.5C 256.821,166.462 254.655,163.462 252.5,160.5C 251.516,163.428 251.183,166.428 251.5,169.5C 250.167,169.5 248.833,169.5 247.5,169.5C 247.5,161.833 247.5,154.167 247.5,146.5 Z"/></g>
<g><path style="opacity:1" fill="#f5f5f5" d="M 280.5,146.5 C 288.742,146.243 291.242,149.91 288,157.5C 285.65,159.683 283.483,162.016 281.5,164.5C 284.086,165.48 286.753,165.813 289.5,165.5C 289.5,166.833 289.5,168.167 289.5,169.5C 285.167,169.5 280.833,169.5 276.5,169.5C 276.338,167.473 276.505,165.473 277,163.5C 280.398,160.606 283.231,157.272 285.5,153.5C 285.5,151.5 284.5,150.5 282.5,150.5C 280.668,151.821 278.668,152.821 276.5,153.5C 276.187,150.163 277.52,147.829 280.5,146.5 Z"/></g>
<g><path style="opacity:1" fill="#f3f3f3" d="M 298.5,146.5 C 303.772,145.549 307.272,147.549 309,152.5C 309.667,156.167 309.667,159.833 309,163.5C 307.268,168.617 303.768,170.45 298.5,169C 291.86,161.43 291.86,153.93 298.5,146.5 Z"/></g>
<g><path style="opacity:1" fill="#f5f5f5" d="M 318.5,146.5 C 326.742,146.243 329.242,149.91 326,157.5C 323.65,159.683 321.483,162.016 319.5,164.5C 322.086,165.48 324.753,165.813 327.5,165.5C 327.5,166.833 327.5,168.167 327.5,169.5C 323.167,169.5 318.833,169.5 314.5,169.5C 314.338,167.473 314.505,165.473 315,163.5C 318.398,160.606 321.231,157.272 323.5,153.5C 323.5,151.5 322.5,150.5 320.5,150.5C 318.668,151.821 316.668,152.821 314.5,153.5C 314.187,150.163 315.52,147.829 318.5,146.5 Z"/></g>
<g><path style="opacity:1" fill="#f5f5f5" d="M 337.5,146.5 C 345.742,146.243 348.242,149.91 345,157.5C 342.65,159.683 340.483,162.016 338.5,164.5C 341.086,165.48 343.753,165.813 346.5,165.5C 346.5,166.833 346.5,168.167 346.5,169.5C 342.167,169.5 337.833,169.5 333.5,169.5C 333.338,167.473 333.505,165.473 334,163.5C 337.398,160.606 340.231,157.272 342.5,153.5C 342.5,151.5 341.5,150.5 339.5,150.5C 337.668,151.821 335.668,152.821 333.5,153.5C 333.187,150.163 334.52,147.829 337.5,146.5 Z"/></g>
<g><path style="opacity:1" fill="#fefaf5" d="M 117.5,147.5 C 118.833,147.5 120.167,147.5 121.5,147.5C 121.5,148.833 121.5,150.167 121.5,151.5C 125.167,151.5 128.833,151.5 132.5,151.5C 132.5,156.5 132.5,161.5 132.5,166.5C 131.167,166.5 129.833,166.5 128.5,166.5C 128.5,162.5 128.5,158.5 128.5,154.5C 126.167,153.167 123.833,153.167 121.5,154.5C 121.5,157.167 121.5,159.833 121.5,162.5C 122.833,162.5 124.167,162.5 125.5,162.5C 125.5,163.833 125.5,165.167 125.5,166.5C 122.635,166.945 120.135,166.278 118,164.5C 117.928,160.469 117.094,156.636 115.5,153C 116.885,151.403 117.551,149.57 117.5,147.5 Z"/></g>
<g><path style="opacity:1" fill="#7d7d7d" d="M 251.5,149.5 C 255.976,149.8 257.31,151.967 255.5,156C 254.207,156.49 252.873,156.657 251.5,156.5C 251.5,154.167 251.5,151.833 251.5,149.5 Z"/></g>
<g><path style="opacity:1" fill="#757575" d="M 299.5,150.5 C 301.722,150.178 303.556,150.845 305,152.5C 305.767,156.594 305.434,160.594 304,164.5C 301.978,165.991 300.312,165.658 299,163.5C 298.232,159.08 298.398,154.747 299.5,150.5 Z"/></g>
<g><path style="opacity:1" fill="#fff5e9" d="M 16.5,151.5 C 19.1667,151.5 21.8333,151.5 24.5,151.5C 24.6882,153.103 24.1882,154.437 23,155.5C 21.6439,154.62 20.1439,154.286 18.5,154.5C 18.3359,157.187 18.5026,159.854 19,162.5C 20.4579,163.747 21.9579,163.747 23.5,162.5C 24.529,165.308 23.3624,166.642 20,166.5C 15.3104,166.002 13.1437,163.335 13.5,158.5C 13.6946,155.782 14.6946,153.449 16.5,151.5 Z"/></g>
<g><path style="opacity:1" fill="#fefaf4" d="M 28.5,151.5 C 38.5822,151.304 41.2489,155.804 36.5,165C 32.8453,167.335 29.6786,166.835 27,163.5C 26.0805,159.269 26.5805,155.269 28.5,151.5 Z"/></g>
<g><path style="opacity:1" fill="#fff7ed" d="M 48.5,150.5 C 50.1703,150.751 51.6703,151.418 53,152.5C 55.3333,151.167 57.6667,151.167 60,152.5C 60.4992,157.155 60.6658,161.821 60.5,166.5C 59.1667,166.5 57.8333,166.5 56.5,166.5C 56.5,162.5 56.5,158.5 56.5,154.5C 55.5,154.5 54.5,154.5 53.5,154.5C 53.6653,158.182 53.4986,161.848 53,165.5C 51.9887,166.337 50.8221,166.67 49.5,166.5C 49.5,162.5 49.5,158.5 49.5,154.5C 48.1779,154.33 47.0113,154.663 46,155.5C 45.5014,159.152 45.3347,162.818 45.5,166.5C 44.1667,166.5 42.8333,166.5 41.5,166.5C 41.5,161.5 41.5,156.5 41.5,151.5C 43.1439,151.286 44.6439,151.62 46,152.5C 46.9947,151.934 47.828,151.267 48.5,150.5 Z"/></g>
<g><path style="opacity:1" fill="#fefaf4" d="M 76.5,155.5 C 78.3063,162.67 75.6396,166.337 68.5,166.5C 68.5,168.167 68.5,169.833 68.5,171.5C 67.1667,171.5 65.8333,171.5 64.5,171.5C 64.5,164.833 64.5,158.167 64.5,151.5C 67.8499,151.335 71.1832,151.502 74.5,152C 75.305,153.113 75.9717,154.279 76.5,155.5 Z"/></g>
<g><path style="opacity:1" fill="#fef7ef" d="M 86.5,151.5 C 87.4959,151.414 88.3292,151.748 89,152.5C 89.2315,156.555 89.7315,160.555 90.5,164.5C 90.1131,165.72 89.2798,166.387 88,166.5C 85.6483,166.265 83.1483,166.099 80.5,166C 78.6041,164.192 78.1041,162.025 79,159.5C 80.9251,157.787 83.0918,156.453 85.5,155.5C 83.3691,154.831 81.3691,154.165 79.5,153.5C 81.2789,151.656 83.6122,150.99 86.5,151.5 Z"/></g>
<g><path style="opacity:1" fill="#fef7ef" d="M 92.5,151.5 C 95.5,152.833 98.5,152.833 101.5,151.5C 101.5,152.5 101.5,153.5 101.5,154.5C 100.178,154.33 99.0113,154.663 98,155.5C 97.5014,159.152 97.3347,162.818 97.5,166.5C 96.1667,166.5 94.8333,166.5 93.5,166.5C 93.7257,161.438 93.3924,156.438 92.5,151.5 Z"/></g>
<g><path style="opacity:1" fill="#fef6ee" d="M 106.5,150.5 C 109.099,150.549 111.266,151.549 113,153.5C 113.667,157.5 113.667,161.5 113,165.5C 110.902,165.448 108.736,165.782 106.5,166.5C 101.419,165.091 100.419,162.258 103.5,158C 105.473,157.505 107.473,157.338 109.5,157.5C 109.5,156.5 109.5,155.5 109.5,154.5C 107.5,154.5 105.5,154.5 103.5,154.5C 103.5,153.5 103.5,152.5 103.5,151.5C 104.791,151.737 105.791,151.404 106.5,150.5 Z"/></g>
<g><path style="opacity:1" fill="#fef7ef" d="M 134.5,152.5 C 135.884,151.199 137.384,151.199 139,152.5C 140.878,161.527 142.378,161.194 143.5,151.5C 144.978,151.238 146.311,151.571 147.5,152.5C 146.007,156.824 144.507,161.157 143,165.5C 141.667,166.833 140.333,166.833 139,165.5C 137.637,161.009 136.137,156.676 134.5,152.5 Z"/></g>
<g><path style="opacity:1" fill="#fef9f3" d="M 151.5,151.5 C 158.278,149.945 161.278,152.612 160.5,159.5C 157.833,159.5 155.167,159.5 152.5,159.5C 152.843,163.438 154.843,164.438 158.5,162.5C 159.5,162.833 160.167,163.5 160.5,164.5C 150.892,168.41 147.059,165.076 149,154.5C 150.045,153.627 150.878,152.627 151.5,151.5 Z"/></g>
<g><path style="opacity:1" fill="#fff6ec" d="M 164.5,151.5 C 167.167,151.5 169.833,151.5 172.5,151.5C 172.5,152.5 172.5,153.5 172.5,154.5C 164.777,154.628 164.611,155.961 172,158.5C 174.222,161.51 173.722,164.01 170.5,166C 167.534,166.895 164.867,166.395 162.5,164.5C 162.709,163.914 163.043,163.414 163.5,163C 165.527,163.498 167.527,163.331 169.5,162.5C 167.462,160.724 165.296,159.057 163,157.5C 162.591,155.305 163.091,153.305 164.5,151.5 Z"/></g>
<g><path style="opacity:1" fill="#7e7e7e" d="M 233.5,150.5 C 234.365,153.418 235.365,156.418 236.5,159.5C 235.311,160.429 233.978,160.762 232.5,160.5C 233.051,157.193 233.384,153.86 233.5,150.5 Z"/></g>
<g><path style="opacity:1" fill="#f4a335" d="M 30.5,154.5 C 31.8221,154.33 32.9887,154.663 34,155.5C 34.6667,157.833 34.6667,160.167 34,162.5C 33,163.833 32,163.833 31,162.5C 30.5026,159.854 30.3359,157.187 30.5,154.5 Z"/></g>
<g><path style="opacity:1" fill="#f5a637" d="M 68.5,154.5 C 71.7343,154.237 73.0676,155.737 72.5,159C 73.0676,162.263 71.7343,163.763 68.5,163.5C 68.5,160.5 68.5,157.5 68.5,154.5 Z"/></g>
<g><path style="opacity:1" fill="#f6a850" d="M 152.5,154.5 C 153.833,154.5 155.167,154.5 156.5,154.5C 156.5,155.5 156.5,156.5 156.5,157.5C 155.167,157.5 153.833,157.5 152.5,157.5C 152.5,156.5 152.5,155.5 152.5,154.5 Z"/></g>
<g><path style="opacity:1" fill="#f5a448" d="M 83.5,159.5 C 84.5,159.5 85.5,159.5 86.5,159.5C 86.8333,162.5 85.5,163.833 82.5,163.5C 82.4326,162.041 82.7659,160.708 83.5,159.5 Z"/></g>
<g><path style="opacity:1" fill="#f39c36" d="M 106.5,159.5 C 107.5,159.5 108.5,159.5 109.5,159.5C 109.426,163.541 108.093,164.208 105.5,161.5C 105.863,160.817 106.196,160.15 106.5,159.5 Z"/></g>
</svg>
