<svg width="250" height="101" viewBox="0 0 250 101" fill="none" xmlns="http://www.w3.org/2000/svg">
<path d="M101.697 44.7887C101.147 44.7887 100.697 44.3782 100.697 43.8765C100.697 33.306 91.2755 24.7082 79.6916 24.7082C76.5925 24.7082 73.606 25.3126 70.8194 26.4984C70.3195 26.7151 69.7196 26.5098 69.4948 26.0537C69.2573 25.5976 69.4821 25.0503 69.9821 24.845C73.0311 23.5451 76.3051 22.8837 79.6916 22.8837C92.375 22.8837 102.697 32.3026 102.697 43.8765C102.697 44.3782 102.247 44.7887 101.697 44.7887Z" fill="#0075FF"/>
<path d="M61.0472 67.9593C60.7097 67.9593 60.3849 67.8111 60.1974 67.5374C57.8981 64.1964 56.686 60.3535 56.686 56.3968V43.8763C56.686 38.6083 58.8353 33.5682 62.7591 29.6798C63.134 29.3035 63.7714 29.2807 64.1712 29.6228C64.5836 29.9649 64.6086 30.5464 64.2337 30.9113C60.6597 34.4576 58.6855 39.0644 58.6855 43.865V56.3853C58.6855 59.9887 59.7975 63.5122 61.8969 66.5567C62.1968 66.9786 62.0468 67.5488 61.5844 67.8111C61.4096 67.9137 61.2346 67.9593 61.0472 67.9593Z" fill="#0075FF"/>
<path d="M79.6915 77.3895C74.7304 77.3895 70.0069 75.9641 66.0207 73.2731C65.5833 72.9766 65.4833 72.4064 65.8083 71.9959C66.1332 71.5968 66.758 71.5055 67.2077 71.802C70.8442 74.2651 75.1554 75.565 79.6915 75.565C91.2753 75.565 100.697 66.9673 100.697 56.3968C100.697 55.8951 101.147 55.4846 101.697 55.4846C102.247 55.4846 102.697 55.8951 102.697 56.3968C102.697 67.9706 92.3749 77.3895 79.6915 77.3895Z" fill="#0075FF"/>
<path d="M62.2343 55.3135C61.6845 55.3135 61.2346 54.9031 61.2346 54.4013V43.8765C61.2346 34.5945 69.507 27.0344 79.6913 27.0344C80.2412 27.0344 80.691 27.4449 80.691 27.9466C80.691 28.4483 80.2412 28.8589 79.6913 28.8589C70.6192 28.8589 63.234 35.598 63.234 43.8765V54.4013C63.234 54.9031 62.7967 55.3135 62.2343 55.3135Z" fill="#00D1FF"/>
<path d="M79.6913 73.2389C71.4814 73.2389 64.1712 68.1988 61.9343 60.9923C61.7845 60.5019 62.0968 60.0001 62.6217 59.8634C63.159 59.7264 63.7089 60.0116 63.8587 60.4905C65.8581 66.9217 72.3686 71.4145 79.6913 71.4145C80.2411 71.4145 80.691 71.825 80.691 72.3267C80.691 72.8285 80.2411 73.2389 79.6913 73.2389Z" fill="#00D1FF"/>
<path d="M90.3381 69.9206C90.0383 69.9206 89.7383 69.7952 89.5508 69.5671C89.2134 69.1682 89.2884 68.598 89.7258 68.2901C93.7995 65.4166 96.1489 61.0834 96.1489 56.3968V43.8764C96.1489 39.7943 94.3868 35.9857 91.1753 33.1236C90.7755 32.7701 90.7755 32.2 91.1628 31.8351C91.5503 31.4702 92.175 31.4702 92.5749 31.8236C96.1737 35.0279 98.1606 39.3039 98.1606 43.8764V56.3968C98.1606 61.6536 95.5365 66.5112 90.963 69.7269C90.763 69.8637 90.5505 69.9206 90.3381 69.9206Z" fill="#00D1FF"/>
<path d="M66.7952 52.4741C66.2453 52.4741 65.7955 52.0637 65.7955 51.5619V43.8765C65.7955 36.8865 72.0311 31.1964 79.6911 31.1964C87.3513 31.1964 93.5869 36.8865 93.5869 43.8765C93.5869 44.3782 93.137 44.7887 92.5872 44.7887C92.0373 44.7887 91.5875 44.3782 91.5875 43.8765C91.5875 37.8898 86.2516 33.0209 79.6911 33.0209C73.1308 33.0209 67.7949 37.8898 67.7949 43.8765V51.5619C67.7949 52.0637 67.345 52.4741 66.7952 52.4741Z" fill="#00FFA3"/>
<path d="M79.6911 69.0882C72.0311 69.0882 65.7955 63.3983 65.7955 56.4083C65.7955 55.9065 66.2453 55.4961 66.7952 55.4961C67.345 55.4961 67.7949 55.9065 67.7949 56.4083C67.7949 62.3948 73.1308 67.2638 79.6911 67.2638C86.2516 67.2638 91.5875 62.3948 91.5875 56.4083V50.1366C91.5875 49.6349 92.0373 49.2244 92.5872 49.2244C93.137 49.2244 93.5869 49.6349 93.5869 50.1366V56.3968C93.5869 63.3983 87.3513 69.0882 79.6911 69.0882Z" fill="#00FFA3"/>
<path d="M85.5272 48.1411V41.4705C85.5272 40.0451 84.9148 38.7111 83.8153 37.7076C82.7155 36.7041 81.2536 36.1453 79.6916 36.1453C76.4801 36.1453 73.856 38.5285 73.856 41.4705V48.1411C71.744 49.692 70.3945 52.0751 70.3945 54.7435C70.3945 59.4301 74.5557 63.2272 79.6916 63.2272C84.8275 63.2272 88.9887 59.4301 88.9887 54.7435C88.9887 52.0751 87.6391 49.692 85.5272 48.1411ZM79.6916 37.9698C80.7163 37.9698 81.6785 38.3347 82.4032 38.9961C83.128 39.6574 83.5279 40.5355 83.5279 41.4705V47.0124C82.3532 46.5334 81.0536 46.2597 79.6916 46.2597C78.3295 46.2597 77.0299 46.5334 75.8552 47.0124V41.4705C75.8552 39.5435 77.5798 37.9698 79.6916 37.9698ZM82.0283 59.8634H77.3423C76.9549 59.8634 76.6799 59.4984 76.8299 59.1677L78.4045 55.5987C77.0923 55.1083 76.1802 53.8996 76.2801 52.5084C76.3801 50.9577 77.7671 49.692 79.4666 49.6007C81.4535 49.4868 83.103 50.9236 83.103 52.7137C83.103 54.025 82.2158 55.1426 80.9661 55.5987L82.5407 59.1677C82.6905 59.5099 82.4282 59.8634 82.0283 59.8634Z" fill="#00FF57"/>
<path d="M11.0773 58.8143H0V55.3506H3.09961V42.7424H0V39.2788H11.0773V42.7424H7.97772V55.3506H11.0773V58.8143ZM33.4484 49.0531C33.4484 52.1669 32.5843 54.642 30.8562 56.4789C29.1289 58.307 26.7404 59.2209 23.6919 59.2209C20.6515 59.2209 18.2674 58.307 16.5398 56.4789C14.8121 54.642 13.9483 52.1669 13.9483 49.0531C13.9483 45.9129 14.8121 43.4333 16.5398 41.6141C18.2674 39.7861 20.6515 38.8721 23.6919 38.8721C26.7235 38.8721 29.1078 39.7861 30.8436 41.6141C32.5801 43.4333 33.4484 45.9129 33.4484 49.0531ZM26.9818 53.9993C27.4564 53.4045 27.808 52.7047 28.036 51.9C28.265 51.0866 28.3794 50.1333 28.3794 49.04C28.3794 47.8679 28.2481 46.8708 27.9856 46.0487C27.7231 45.2265 27.3798 44.5616 26.9565 44.0544C26.525 43.5297 26.0251 43.1491 25.4574 42.9129C24.8987 42.6768 24.314 42.5587 23.7045 42.5587C23.0863 42.5587 22.5019 42.6724 21.9515 42.8999C21.4094 43.1272 20.9097 43.5034 20.4525 44.0282C20.0289 44.5179 19.6817 45.1958 19.4108 46.0618C19.1483 46.9189 19.017 47.916 19.017 49.0531C19.017 50.2163 19.144 51.2092 19.3981 52.0313C19.6606 52.8446 20.0036 53.5095 20.427 54.0254C20.8504 54.5416 21.3459 54.922 21.9134 55.1669C22.4807 55.4118 23.0778 55.5343 23.7045 55.5343C24.3315 55.5343 24.9282 55.4118 25.4959 55.1669C26.0631 54.9132 26.5586 54.524 26.9818 53.9993ZM52.3256 52.6741C52.3256 54.5984 51.5331 56.164 49.9497 57.3709C48.3747 58.5693 46.2318 59.1685 43.5218 59.1685C41.9552 59.1685 40.5872 59.0285 39.4186 58.7486C38.2584 58.4599 37.1705 58.097 36.1541 57.6596V52.9759H36.6875C37.6955 53.8067 38.8212 54.4454 40.0664 54.8913C41.3201 55.3375 42.5224 55.5605 43.6741 55.5605C43.9703 55.5605 44.3599 55.5343 44.8427 55.4818C45.3257 55.4294 45.7195 55.3419 46.024 55.2193C46.3968 55.0619 46.702 54.8651 46.9392 54.6289C47.1843 54.3929 47.3071 54.0429 47.3071 53.5794C47.3071 53.1507 47.1295 52.7834 46.7737 52.4773C46.4269 52.1625 45.9145 51.922 45.2365 51.7557C44.5256 51.5808 43.7717 51.4189 42.9757 51.2702C42.1882 51.1128 41.4471 50.9161 40.7522 50.6799C39.1603 50.1464 38.0126 49.4247 37.3102 48.5151C36.6153 47.5967 36.2679 46.4597 36.2679 45.1039C36.2679 43.2847 37.0561 41.8022 38.6311 40.6564C40.2145 39.5018 42.2472 38.9246 44.7283 38.9246C45.9735 38.9246 47.2017 39.0513 48.4125 39.3049C49.6324 39.55 50.6866 39.8605 51.576 40.2365V44.7366H51.0552C50.2929 44.1068 49.3565 43.5821 48.2477 43.1622C47.1464 42.7337 46.0198 42.5195 44.868 42.5195C44.4616 42.5195 44.0552 42.55 43.6488 42.6112C43.2509 42.6637 42.8656 42.7686 42.4929 42.926C42.1622 43.0573 41.8786 43.2584 41.6414 43.5297C41.4042 43.792 41.2863 44.0938 41.2863 44.4349C41.2863 44.9509 41.4765 45.3488 41.8577 45.6288C42.2388 45.8999 42.9589 46.1491 44.0173 46.3766C44.7115 46.5253 45.3762 46.6696 46.0115 46.8096C46.6551 46.9496 47.3456 47.1419 48.082 47.3868C49.5307 47.8766 50.5975 48.5458 51.2833 49.3942C51.9782 50.2339 52.3256 51.3272 52.3256 52.6741Z" fill="white"/>
<path d="M123.313 52.6657C123.313 54.5924 122.542 56.16 120.999 57.3686C119.464 58.5685 117.377 59.1683 114.736 59.1683C113.21 59.1683 111.877 59.0282 110.739 58.748C109.608 58.459 108.548 58.0955 107.558 57.6576V52.9679H108.078C109.06 53.7999 110.157 54.4391 111.37 54.8858C112.591 55.3324 113.763 55.5558 114.885 55.5558C115.174 55.5558 115.553 55.5295 116.024 55.477C116.494 55.4244 116.878 55.3368 117.175 55.2143C117.538 55.0565 117.835 54.8596 118.066 54.6231C118.305 54.3866 118.425 54.0363 118.425 53.5721C118.425 53.143 118.251 52.7752 117.905 52.4686C117.567 52.1534 117.067 51.9125 116.407 51.7461C115.714 51.5709 114.98 51.4089 114.204 51.26C113.437 51.1025 112.715 50.9054 112.038 50.6689C110.487 50.1347 109.369 49.4121 108.684 48.5013C108.008 47.5818 107.669 46.4433 107.669 45.0858C107.669 43.2641 108.437 41.7798 109.971 40.6324C111.515 39.4763 113.495 38.8984 115.912 38.8984C117.125 38.8984 118.322 39.0254 119.501 39.2794C120.69 39.5246 121.717 39.8355 122.583 40.2121V44.718H122.076C121.333 44.0874 120.421 43.5619 119.341 43.1416C118.268 42.7125 117.171 42.4978 116.048 42.4978C115.652 42.4978 115.256 42.5285 114.86 42.5898C114.472 42.6425 114.097 42.7474 113.734 42.9051C113.412 43.0365 113.136 43.2379 112.905 43.5093C112.674 43.7721 112.558 44.0743 112.558 44.4159C112.558 44.9326 112.744 45.331 113.115 45.6113C113.486 45.8829 114.188 46.1323 115.219 46.36C115.896 46.509 116.543 46.6535 117.162 46.7936C117.789 46.9337 118.462 47.1263 119.18 47.3717C120.591 47.8621 121.63 48.532 122.299 49.3815C122.975 50.2222 123.313 51.317 123.313 52.6657ZM139.911 58.8137H126.581V39.2531H139.911V43.0365H131.309V46.4127H139.291V50.1959H131.309V55.0304H139.911V58.8137ZM152.238 59.1946C150.868 59.1946 149.6 58.9801 148.437 58.5509C147.283 58.1218 146.289 57.4826 145.455 56.633C144.622 55.7834 143.974 54.7238 143.512 53.4539C143.058 52.184 142.831 50.717 142.831 49.0531C142.831 47.5029 143.05 46.0974 143.487 44.8362C143.925 43.5752 144.56 42.4935 145.392 41.5914C146.193 40.7244 147.183 40.0544 148.363 39.5815C149.552 39.1086 150.847 38.8721 152.25 38.8721C153.026 38.8721 153.722 38.9202 154.342 39.0166C154.969 39.1042 155.546 39.2224 156.074 39.3714C156.626 39.5377 157.126 39.726 157.573 39.9362C158.026 40.1377 158.421 40.3259 158.76 40.501V45.2435H158.215C157.984 45.0333 157.692 44.7836 157.336 44.4946C156.99 44.2057 156.594 43.9209 156.148 43.6407C155.695 43.3605 155.203 43.124 154.676 42.9314C154.147 42.7387 153.583 42.6424 152.981 42.6424C152.311 42.6424 151.676 42.7563 151.074 42.9839C150.472 43.2028 149.914 43.5706 149.404 44.0874C148.916 44.5866 148.52 45.2478 148.215 46.0711C147.919 46.8943 147.769 47.8926 147.769 49.0663C147.769 50.2923 147.93 51.317 148.253 52.1403C148.581 52.9635 148.994 53.6116 149.49 54.0845C149.993 54.5661 150.554 54.9121 151.173 55.1222C151.792 55.3237 152.403 55.4244 153.006 55.4244C153.583 55.4244 154.151 55.3324 154.712 55.1486C155.282 54.9645 155.807 54.7151 156.285 54.3997C156.689 54.1458 157.064 53.8743 157.411 53.5853C157.757 53.2962 158.042 53.0467 158.265 52.8365H158.76V57.5132C158.298 57.7321 157.856 57.9379 157.436 58.1307C157.015 58.3233 156.574 58.4897 156.11 58.6298C155.509 58.8137 154.943 58.9538 154.416 59.0502C153.888 59.1465 153.161 59.1946 152.238 59.1946ZM178.39 51.733C178.39 54.1502 177.696 56.0025 176.31 57.2898C174.923 58.5772 172.882 59.2209 170.183 59.2209C167.485 59.2209 165.443 58.5772 164.057 57.2898C162.679 56.0025 161.99 54.1545 161.99 51.7461V39.2531H166.767V51.4571C166.767 52.8145 167.035 53.8262 167.573 54.4917C168.109 55.1573 168.978 55.4901 170.183 55.4901C171.372 55.4901 172.238 55.1705 172.782 54.5311C173.336 53.8917 173.612 52.8672 173.612 51.4571V39.2531H178.39V51.733ZM193.179 45.2435C193.179 44.7529 193.084 44.3327 192.895 43.9823C192.705 43.632 192.379 43.3561 191.917 43.1547C191.594 43.0145 191.219 42.9314 190.791 42.9051C190.362 42.8701 189.862 42.8526 189.294 42.8526H187.573V48.1204H189.033C189.792 48.1204 190.427 48.081 190.939 48.0022C191.451 47.9233 191.879 47.7438 192.225 47.4635C192.557 47.192 192.795 46.8943 192.945 46.5702C193.1 46.2375 193.179 45.7952 193.179 45.2435ZM200.593 58.8137H194.788L189.763 51.641H187.573V58.8137H182.844V39.2531H190.815C191.904 39.2531 192.84 39.3188 193.625 39.4502C194.408 39.5815 195.142 39.8661 195.827 40.3041C196.52 40.7419 197.07 41.3112 197.474 42.0118C197.887 42.7036 198.093 43.5752 198.093 44.626C198.093 46.0711 197.775 47.249 197.14 48.1597C196.513 49.0706 195.613 49.8281 194.442 50.4324L200.593 58.8137ZM212.635 58.8137H201.843V55.3456H204.862V42.7212H201.843V39.2531H212.635V42.7212H209.615V55.3456H212.635V58.8137ZM230.927 43.0365H225.173V58.8137H220.42V43.0365H214.664V39.2531H230.927V43.0365ZM250 39.2531L243.205 51.247V58.8137H238.452V51.4834L231.546 39.2531H236.943L240.929 46.8198L244.778 39.2531H250Z" fill="white"/>
</svg>
